<svg xmlns="http://www.w3.org/2000/svg" width="460" height="120" viewBox="0 0 460 120" fill="none"><defs><radialGradient id="tipFade"><stop offset="0" stop-color="#000"></stop><stop offset="0.4" stop-color="#404040"></stop><stop offset="1" stop-color="#fff"></stop></radialGradient><mask id="tf1" maskUnits="userSpaceOnUse" x="-20" y="-20" width="351" height="333"><rect x="-20" y="-20" width="351" height="333" fill="#fff"></rect><circle cx="303" cy="30" r="52" fill="url(#tipFade)"></circle></mask><mask id="tf2" maskUnits="userSpaceOnUse" x="-20" y="-20" width="351" height="333"><rect x="-20" y="-20" width="351" height="333" fill="#fff"></rect><circle cx="8" cy="268" r="52" fill="url(#tipFade)"></circle></mask><mask id="tf3" maskUnits="userSpaceOnUse" x="-20" y="-20" width="351" height="333"><rect x="-20" y="-20" width="351" height="333" fill="#fff"></rect><circle cx="165" cy="145" r="30" fill="url(#tipFade)"></circle></mask><mask id="tf4" maskUnits="userSpaceOnUse" x="-20" y="-20" width="351" height="333"><rect x="-20" y="-20" width="351" height="333" fill="#fff"></rect><circle cx="135" cy="242" r="58" fill="url(#tipFade)"></circle></mask><mask id="tf7" maskUnits="userSpaceOnUse" x="-20" y="-20" width="351" height="333"><rect x="-20" y="-20" width="351" height="333" fill="#fff"></rect><circle cx="149" cy="146" r="30" fill="url(#tipFade)"></circle></mask><mask id="tf5" maskUnits="userSpaceOnUse" x="-20" y="-20" width="351" height="333"><rect x="-20" y="-20" width="351" height="333" fill="#fff"></rect><circle cx="182" cy="50" r="55" fill="url(#tipFade)"></circle></mask></defs><text x="0" y="102" font-family="Trap, &#39;Space Grotesk&#39;, sans-serif" font-size="120" font-weight="700" fill="#1F2827" textLength="460" lengthAdjust="spacingAndGlyphs">IMLEAD</text></svg>